<?xml version="1.0" encoding="UTF-8" standalone="no"?>
<!-- Created with Inkscape (http://www.inkscape.org/) -->
<svg xmlns:rdf="http://www.w3.org/1999/02/22-rdf-syntax-ns#" xmlns="http://www.w3.org/2000/svg" xmlns:cc="http://web.resource.org/cc/" xmlns:dc="http://purl.org/dc/elements/1.1/" xmlns:svg="http://www.w3.org/2000/svg" xmlns:inkscape="http://www.inkscape.org/namespaces/inkscape" xmlns:sodipodi="http://sodipodi.sourceforge.net/DTD/sodipodi-0.dtd" xmlns:ns1="http://sozi.baierouge.fr" xmlns:xlink="http://www.w3.org/1999/xlink" id="svg2780" viewBox="0 0 223.96 262.33" version="1.0" inkscape:version="0.91 r13725">
  <g id="layer1" transform="translate(-12.917 -793.29)">
    <path id="path3282" style="fill-rule:evenodd;stroke:#000000;stroke-width:2;fill:#fdeb00" d="m13.917 794.29l4.036 169.52c2.882 121.09 211 121.09 213.89 0l4.03-169.52h-221.95z"/>
    <path id="path3271" style="stroke-linejoin:round;fill-rule:evenodd;color:#000000;stroke:#fdeb00;stroke-linecap:round;stroke-width:1px;fill:#000000" d="m112.42 852.75c-0.24-7.98-5.34-15.5-12.698-20.05-7.302-4.53-22.377-2.68-28.117 4.25-5.688 6.87-7.953 22.29 3.259 27.41 11.259 5.15 18.53-6.33 16.341-14.33-2.198-8.04-7.431-8.23-15.176-7.87 4.121-6.69 11.441-7.17 16.739-1.65 2.596-1.38 8.552 2.56 7.772 6.57l-1.575 16.29c0.237 3.59-2.799 6.89-7.661 7.04-0.757 4.19-5.409 7.46-11.094 4.23-1.557 2.47-8.128 4.41-12.721-0.35-5.606 1.71-10.103-2.14-10.296-6.28-5.44-1.29-7.165-7.74-6.494-11.72-4.497-4.72-2.998-11.02 0.109-14.19-2.047-6.61-0.114-12.14 5.357-13.45 0.648-6.87 5.92-10.96 11.008-10.62 2.756-6.24 8.95-8.36 15.237-6.5 4.098-5.07 10.543-4.36 15.372-1 7.048-2.83 12.988-0.5 16.028 5.59 9.19-1.34 12.66 5.76 12.16 11.25 6.07 1.54 8.71 4.46 7.55 11.23l-21.1 14.15z"/>
    <path id="path3263" style="stroke-linejoin:round;fill-rule:evenodd;color:#000000;stroke:#fdeb00;stroke-linecap:round;stroke-width:1px;fill:#000000" d="m104.98 864.01c-15.265-0.42-21.989-7.58-26.394-14.28 13.266-7.99 26.664-1.23 33.304 2.99l-6.91 11.29z"/>
    <path id="path3265" style="stroke-linejoin:round;color:#000000;stroke:#fdeb00;stroke-linecap:round;stroke-width:1px;fill:none" d="m94.621 851.58c10.569 1.76 12.949 4.58 13.739 5.37"/>
    <path id="path2278" style="stroke-linejoin:round;fill-rule:evenodd;stroke:#fdeb00;stroke-linecap:round;stroke-width:1px;fill:#000000" d="m105.01 864.13l15.69 44.45c-5.94 19.21-25.903 9.87-42.29 47.93-3.716 1.12-8.698 7.38-7.577 10.75-4.33 3.4-6.745 9.36-2.643 14.97-5.291 3.76-1.737 11.87 0.073 14.13-2.622 3.37-0.135 11.34 3.099 12.44-1.111 6.7 2.014 13.3 7.132 13.9 2.243 6.5 4.226 8.7 9.469 9.4 5.257 0.6 28.957 2.6 42.847-1.2 13.77-3.8 40.14-12 41.25-19.5 1.13-7.4-4.32-12.07-4.32-12.07 1.94-4.23 1.01-8.34-0.17-12.69 2.62-3.4 3.86-8.53 2.87-13.42 3.17-3.59 4.84-9.8 3.4-14.02 3.06-4.62 3.76-9.5 2.22-14.25 2.58-3.66 2.67-9.43 1.76-12.72 1.1-3.68 3.2-8.24 1.3-12.42 2.09-4.51 0.8-9.39-0.98-14.4l-20.95-29.27c10.7 7.18 23.16 8.25 35.88 7.77-3.33-8.55-12.76-17.35-26.56-20.17l-24.31-24.94c-12.09-3.94-15.64 2.34-15.64 2.34-4.07-0.3-6.64 2.02-7.59 4.96-3.15 0.29-6.41 2.7-8.07 5.49-2.37 0.74-6.37 4.85-5.89 12.54z"/>
    <path id="path3255" style="stroke-linejoin:round;color:#000000;stroke:#fdeb00;stroke-linecap:round;stroke-width:1px;fill:none" d="m79.117 951.94c-1.62 6.6-0.872 13.7 0.623 16.7-2.616 3.74-2.16 9.84 0.872 13.08-0.415 6.31 0.789 12.12 3.24 16.32 1.827-7.52 7.268-12.79 13.331-17.69"/>
    <path id="path3267" style="stroke-linejoin:round;color:#000000;stroke:#fdeb00;stroke-linecap:round;stroke-width:1px;fill:none" d="m168.45 871.93c9.78 2.47 17.62 7.49 18.41 8.28"/>
    <path id="path3269" style="stroke-linejoin:round;fill-rule:evenodd;color:#000000;stroke:#fdeb00;stroke-linecap:round;stroke-width:1px;fill:#000000" d="m152.01 862.87c10.9-16.13 22.37-16.86 32.53-13.9 11.04 3.23 15.11 12.88 14.59 22.56s-6.98 20.13-19.05 18.85c-12.2-1.3-16.2-9.06-15.76-18.35 0.42-8.74 8.69-10.95 15.15-11 6.79-0.06 12.54 6.1 15.25 11.77 1.1-2.18 2.14-4.22 1.46-7.41s-4.38-5.88-5.49-6.86c-1.18-1.05-0.88-2.23-2.26-3.56s-4.26-2.47-7.82-1.36c-0.93-2.79-7.83-2.39-9.87 0.35-3.11-0.71-8.34-0.3-9.34 4.23-5.26 0.63-8.4 4.88-7.93 11.63-3.43 3.07-3.87 7.38 0.18 11.45-2.51 4.08-2.64 9.16 3.7 10.75-0.5 7.31 6.1 9.01 9.34 8.1 2.89 4.54 7.9 6.84 10.92 3.53 4.37 4.8 9.61 2.76 11.98-0.53 5.5 1.4 9.38-1.07 11.63-4.41 4.13-0.34 8.14-4.54 8.53-8.37 4.66-2.46 5.08-6.78 3.63-10.48 3.47-2.58 4.29-6.93 1.41-10.92 4.11-5.06 2.58-11.16-1.94-14.63 1.41-6.87-2.64-12.86-9.16-13.57-2.64-8.34-7.22-10.51-14.62-9.34-3.12-5.16-11.16-6.81-16.22-3.87-5.16-2.29-11.57-2.29-16.56 2.64-8.75-0.65-13.45 4.52-14.09 10.75-22.81 6.28-9.49 24.64 9.81 21.95z"/>
    <path id="path3253" style="stroke-linejoin:round;fill-rule:evenodd;stroke:#fdeb00;stroke-linecap:round;stroke-width:1px;fill:#000000" d="m131.19 861.49c-0.22 0.49-4.28 1.68-8.67 1.02-3.04 2.43-5.23 2.55-8.74 1.74-4.28 1.14-7.61 0.44-8.83-0.35-8.976 7.29-28.689 33.58-30.593 38.34-2.114 5.28 3.524 6.52 4.934 4.4 1.41-2.11 4.229-5.64 4.229-5.64s-1.938 2.65-3.7 5.11c-1.762 2.47-3.172 0.89-2.996 4.23 0.176 3.35 3.348 11.1 6.872 9.34s12.334-7.75 12.334-7.75-7.753 5.46-10.748 7.05c-2.996 1.58 5.991 6.69 9.515 4.4s5.993-7.57 8.983-7.75c3-0.18 32.23-6.28 39.3-9.52 7.07-3.23 7.57-8.28 7.57-8.28"/>
    <path id="path3257" style="stroke-linejoin:round;color:#000000;stroke:#fdeb00;stroke-linecap:round;stroke-width:1px;fill:none" d="m127.03 874.68c-3.29 7.29-10.13 4.53-10.3 2.19-0.17-2.44 3.02-7.58 10.3-2.19z"/>
    <path id="path3259" style="stroke-linejoin:round;color:#000000;stroke:#fdeb00;stroke-linecap:round;stroke-width:1px;fill:none" d="m113.3 881.18l3.96-2.99"/>
    <path id="path3261" style="stroke-linejoin:round;color:#000000;stroke:#fdeb00;stroke-linecap:round;stroke-width:1px;fill:none" d="m124.17 875.42l5.07-0.41"/>
  </g>
  <metadata>
    <rdf:RDF>
      <cc:Work>
        <dc:format>image/svg+xml</dc:format>
        <dc:type rdf:resource="http://purl.org/dc/dcmitype/StillImage"/>
        <cc:license rdf:resource="http://creativecommons.org/licenses/publicdomain/"/>
        <dc:publisher>
          <cc:Agent rdf:about="http://openclipart.org/">
            <dc:title>Openclipart</dc:title>
          </cc:Agent>
        </dc:publisher>
        <dc:title>Wildberg - Coat of arms</dc:title>
        <dc:date>2007-12-18T12:09:27</dc:date>
        <dc:description>Coat of arms of Wildberg, Zürich, Switzerland</dc:description>
        <dc:source>https://openclipart.org/detail/10143/wildberg---coat-of-arms-by-wipp-10143</dc:source>
        <dc:creator>
          <cc:Agent>
            <dc:title>wipp</dc:title>
          </cc:Agent>
        </dc:creator>
        <dc:subject>
          <rdf:Bag>
            <rdf:li>animal</rdf:li>
            <rdf:li>coat of arms</rdf:li>
            <rdf:li>crest</rdf:li>
            <rdf:li>flag</rdf:li>
            <rdf:li>mammal</rdf:li>
            <rdf:li>ram</rdf:li>
            <rdf:li>swiss</rdf:li>
          </rdf:Bag>
        </dc:subject>
      </cc:Work>
      <cc:License rdf:about="http://creativecommons.org/licenses/publicdomain/">
        <cc:permits rdf:resource="http://creativecommons.org/ns#Reproduction"/>
        <cc:permits rdf:resource="http://creativecommons.org/ns#Distribution"/>
        <cc:permits rdf:resource="http://creativecommons.org/ns#DerivativeWorks"/>
      </cc:License>
    </rdf:RDF>
  </metadata>
</svg>
